<svg width="24" height="24" viewBox="0 0 24 24" fill="none" xmlns="http://www.w3.org/2000/svg">
<path d="M17.2352 1.49311C17.0404 1.49879 16.8555 1.58004 16.7196 1.71967L6.96958 11.4697C6.82898 11.6103 6.75 11.8011 6.75 11.9999C6.75 12.1988 6.82898 12.3896 6.96958 12.5302L16.7196 22.2802C16.7887 22.3522 16.8715 22.4097 16.9631 22.4492C17.0547 22.4888 17.1532 22.5097 17.253 22.5108C17.3528 22.5118 17.4518 22.4929 17.5442 22.4552C17.6365 22.4174 17.7205 22.3617 17.791 22.2911C17.8616 22.2206 17.9174 22.1366 17.9551 22.0442C17.9928 21.9519 18.0117 21.8529 18.0107 21.7531C18.0097 21.6533 17.9887 21.5548 17.9492 21.4632C17.9096 21.3716 17.8521 21.2888 17.7801 21.2197L8.5604 11.9999L17.7801 2.78022C17.8883 2.67484 17.9622 2.53925 17.9921 2.3912C18.0219 2.24315 18.0064 2.08953 17.9475 1.95044C17.8886 1.81136 17.7891 1.69329 17.662 1.61169C17.5349 1.53009 17.3862 1.48876 17.2352 1.49311Z" fill="black"/>
</svg>
