<svg width="24" height="24" viewBox="0 0 24 24" fill="none" xmlns="http://www.w3.org/2000/svg">
<path d="M10.2929 19.707C10.4884 19.9025 10.7439 20 10.9999 20C11.2559 20 11.5114 19.9025 11.7069 19.707C12.0974 19.3165 12.0974 18.6835 11.7069 18.293L6.41388 13H19.9999C20.5519 13 20.9999 12.552 20.9999 12C20.9999 11.448 20.5519 11 19.9999 11H6.41388L11.7069 5.707C12.0974 5.3165 12.0974 4.6835 11.7069 4.293C11.3164 3.9025 10.6834 3.9025 10.2929 4.293L3.29287 11.293C2.90237 11.6835 2.90237 12.3165 3.29287 12.707L10.2929 19.707Z" fill="black"/>
</svg>
