<svg width="24" height="24" viewBox="0 0 24 24" fill="none" xmlns="http://www.w3.org/2000/svg">
<path d="M6.74994 3C5.24005 3 3.99994 4.24011 3.99994 5.75V6H3.24994C3.15056 5.99859 3.05188 6.01696 2.95966 6.05402C2.86743 6.09108 2.78349 6.1461 2.71271 6.21588C2.64194 6.28566 2.58573 6.36882 2.54737 6.46051C2.50901 6.5522 2.48926 6.65061 2.48926 6.75C2.48926 6.84939 2.50901 6.9478 2.54737 7.03949C2.58573 7.13118 2.64194 7.21434 2.71271 7.28412C2.78349 7.3539 2.86743 7.40892 2.95966 7.44598C3.05188 7.48304 3.15056 7.50141 3.24994 7.5H6.24994C6.34932 7.50141 6.448 7.48304 6.54022 7.44598C6.63245 7.40892 6.71639 7.3539 6.78717 7.28412C6.85794 7.21434 6.91415 7.13118 6.95251 7.03949C6.99087 6.9478 7.01062 6.84939 7.01062 6.75C7.01062 6.65061 6.99087 6.5522 6.95251 6.46051C6.91415 6.36882 6.85794 6.28566 6.78717 6.21588C6.71639 6.1461 6.63245 6.09108 6.54022 6.05402C6.448 6.01696 6.34932 5.99859 6.24994 6H5.49994V5.75C5.49994 5.05089 6.05083 4.5 6.74994 4.5H17.7499C18.4491 4.5 18.9999 5.05089 18.9999 5.75V18.75C18.9999 19.4491 18.4491 20 17.7499 20H6.74994C6.05083 20 5.49994 19.4491 5.49994 18.75V18H6.24994C6.34932 18.0014 6.448 17.983 6.54022 17.946C6.63245 17.9089 6.71639 17.8539 6.78717 17.7841C6.85794 17.7143 6.91415 17.6312 6.95251 17.5395C6.99087 17.4478 7.01062 17.3494 7.01062 17.25C7.01062 17.1506 6.99087 17.0522 6.95251 16.9605C6.91415 16.8688 6.85794 16.7857 6.78717 16.7159C6.71639 16.6461 6.63245 16.5911 6.54022 16.554C6.448 16.517 6.34932 16.4986 6.24994 16.5H5.49994V15.5H3.99994V16.5H3.24994C3.15056 16.4986 3.05188 16.517 2.95966 16.554C2.86743 16.5911 2.78349 16.6461 2.71271 16.7159C2.64194 16.7857 2.58573 16.8688 2.54737 16.9605C2.50901 17.0522 2.48926 17.1506 2.48926 17.25C2.48926 17.3494 2.50901 17.4478 2.54737 17.5395C2.58573 17.6312 2.64194 17.7143 2.71271 17.7841C2.78349 17.8539 2.86743 17.9089 2.95966 17.946C3.05188 17.983 3.15056 18.0014 3.24994 18H3.99994V18.75C3.99994 20.2599 5.24005 21.5 6.74994 21.5H17.7499C19.2598 21.5 20.4999 20.2599 20.4999 18.75V5.75C20.4999 4.24011 19.2598 3 17.7499 3H6.74994ZM9.24994 6C9.05103 6.00002 8.86028 6.07904 8.71963 6.21969C8.57898 6.36034 8.49996 6.55109 8.49994 6.75V10.25C8.49996 10.4489 8.57898 10.6397 8.71963 10.7803C8.86028 10.921 9.05103 11 9.24994 11H15.7499C15.9488 11 16.1396 10.921 16.2802 10.7803C16.4209 10.6397 16.4999 10.4489 16.4999 10.25V6.75C16.4999 6.55109 16.4209 6.36034 16.2802 6.21969C16.1396 6.07904 15.9488 6.00002 15.7499 6H9.24994ZM9.99994 7.5H14.9999V9.5H9.99994V7.5ZM3.99994 8.5V9.5H3.24994C3.15056 9.49859 3.05188 9.51696 2.95966 9.55402C2.86743 9.59108 2.78349 9.6461 2.71271 9.71588C2.64194 9.78566 2.58573 9.86882 2.54737 9.96051C2.50901 10.0522 2.48926 10.1506 2.48926 10.25C2.48926 10.3494 2.50901 10.4478 2.54737 10.5395C2.58573 10.6312 2.64194 10.7143 2.71271 10.7841C2.78349 10.8539 2.86743 10.9089 2.95966 10.946C3.05188 10.983 3.15056 11.0014 3.24994 11H6.24994C6.34932 11.0014 6.448 10.983 6.54022 10.946C6.63245 10.9089 6.71639 10.8539 6.78717 10.7841C6.85794 10.7143 6.91415 10.6312 6.95251 10.5395C6.99087 10.4478 7.01062 10.3494 7.01062 10.25C7.01062 10.1506 6.99087 10.0522 6.95251 9.96051C6.91415 9.86882 6.85794 9.78566 6.78717 9.71588C6.71639 9.6461 6.63245 9.59108 6.54022 9.55402C6.448 9.51696 6.34932 9.49859 6.24994 9.5H5.49994V8.5H3.99994ZM3.99994 12V13H3.24994C3.15056 12.9986 3.05188 13.017 2.95966 13.054C2.86743 13.0911 2.78349 13.1461 2.71271 13.2159C2.64194 13.2857 2.58573 13.3688 2.54737 13.4605C2.50901 13.5522 2.48926 13.6506 2.48926 13.75C2.48926 13.8494 2.50901 13.9478 2.54737 14.0395C2.58573 14.1312 2.64194 14.2143 2.71271 14.2841C2.78349 14.3539 2.86743 14.4089 2.95966 14.446C3.05188 14.483 3.15056 14.5014 3.24994 14.5H6.24994C6.34932 14.5014 6.448 14.483 6.54022 14.446C6.63245 14.4089 6.71639 14.3539 6.78717 14.2841C6.85794 14.2143 6.91415 14.1312 6.95251 14.0395C6.99087 13.9478 7.01062 13.8494 7.01062 13.75C7.01062 13.6506 6.99087 13.5522 6.95251 13.4605C6.91415 13.3688 6.85794 13.2857 6.78717 13.2159C6.71639 13.1461 6.63245 13.0911 6.54022 13.054C6.448 13.017 6.34932 12.9986 6.24994 13H5.49994V12H3.99994ZM9.24994 13C9.15056 12.9986 9.05188 13.017 8.95966 13.054C8.86743 13.0911 8.78349 13.1461 8.71271 13.2159C8.64194 13.2857 8.58573 13.3688 8.54737 13.4605C8.50901 13.5522 8.48926 13.6506 8.48926 13.75C8.48926 13.8494 8.50901 13.9478 8.54737 14.0395C8.58573 14.1312 8.64194 14.2143 8.71271 14.2841C8.78349 14.3539 8.86743 14.4089 8.95966 14.446C9.05188 14.483 9.15056 14.5014 9.24994 14.5H15.7499C15.8493 14.5014 15.948 14.483 16.0402 14.446C16.1324 14.4089 16.2164 14.3539 16.2872 14.2841C16.3579 14.2143 16.4141 14.1312 16.4525 14.0395C16.4909 13.9478 16.5106 13.8494 16.5106 13.75C16.5106 13.6506 16.4909 13.5522 16.4525 13.4605C16.4141 13.3688 16.3579 13.2857 16.2872 13.2159C16.2164 13.1461 16.1324 13.0911 16.0402 13.054C15.948 13.017 15.8493 12.9986 15.7499 13H9.24994ZM9.24994 16.5C9.15056 16.4986 9.05188 16.517 8.95966 16.554C8.86743 16.5911 8.78349 16.6461 8.71271 16.7159C8.64194 16.7857 8.58573 16.8688 8.54737 16.9605C8.50901 17.0522 8.48926 17.1506 8.48926 17.25C8.48926 17.3494 8.50901 17.4478 8.54737 17.5395C8.58573 17.6312 8.64194 17.7143 8.71271 17.7841C8.78349 17.8539 8.86743 17.9089 8.95966 17.946C9.05188 17.983 9.15056 18.0014 9.24994 18H15.7499C15.8493 18.0014 15.948 17.983 16.0402 17.946C16.1324 17.9089 16.2164 17.8539 16.2872 17.7841C16.3579 17.7143 16.4141 17.6312 16.4525 17.5395C16.4909 17.4478 16.5106 17.3494 16.5106 17.25C16.5106 17.1506 16.4909 17.0522 16.4525 16.9605C16.4141 16.8688 16.3579 16.7857 16.2872 16.7159C16.2164 16.6461 16.1324 16.5911 16.0402 16.554C15.948 16.517 15.8493 16.4986 15.7499 16.5H9.24994Z" fill="black"/>
</svg>
