<svg width="16" height="16" viewBox="0 0 16 16" fill="none" xmlns="http://www.w3.org/2000/svg">
<path d="M12.1667 2H4.83333C3.82267 2 3 2.82267 3 3.83333V4H2.5C2.224 4 2 4.224 2 4.5C2 4.776 2.224 5 2.5 5H3H4.33333C4.51767 5 4.66667 5.149 4.66667 5.33333C4.66667 5.51767 4.51767 5.66667 4.33333 5.66667H3V6.33333H2.5C2.224 6.33333 2 6.55733 2 6.83333C2 7.10933 2.224 7.33333 2.5 7.33333H3H4.33333C4.51767 7.33333 4.66667 7.48233 4.66667 7.66667C4.66667 7.851 4.51767 8 4.33333 8H3V8.66667H2.5C2.224 8.66667 2 8.89067 2 9.16667C2 9.44267 2.224 9.66667 2.5 9.66667H3H4.33333C4.51767 9.66667 4.66667 9.81567 4.66667 10C4.66667 10.1843 4.51767 10.3333 4.33333 10.3333H3V11H2.5C2.224 11 2 11.224 2 11.5C2 11.776 2.224 12 2.5 12H3H4.33333C4.51767 12 4.66667 12.149 4.66667 12.3333C4.66667 12.5177 4.51767 12.6667 4.33333 12.6667H3.00833C3.093 13.5997 3.87867 14.3333 4.83333 14.3333H12.1667C13.1773 14.3333 14 13.5107 14 12.5V3.83333C14 2.82267 13.1773 2 12.1667 2ZM11.1667 12H7.16667C6.89067 12 6.66667 11.7763 6.66667 11.5C6.66667 11.2237 6.89067 11 7.16667 11H11.1667C11.4427 11 11.6667 11.2237 11.6667 11.5C11.6667 11.7763 11.4427 12 11.1667 12ZM11.1667 9.66667H7.16667C6.89067 9.66667 6.66667 9.443 6.66667 9.16667C6.66667 8.89033 6.89067 8.66667 7.16667 8.66667H11.1667C11.4427 8.66667 11.6667 8.89033 11.6667 9.16667C11.6667 9.443 11.4427 9.66667 11.1667 9.66667ZM11.6667 6.33333C11.6667 6.51733 11.5173 6.66667 11.3333 6.66667H7C6.816 6.66667 6.66667 6.51733 6.66667 6.33333V4.66667C6.66667 4.48267 6.816 4.33333 7 4.33333H11.3333C11.5173 4.33333 11.6667 4.48267 11.6667 4.66667V6.33333Z" fill="black"/>
</svg>
