<svg width="24" height="24" viewBox="0 0 24 24" fill="none" xmlns="http://www.w3.org/2000/svg">
<path d="M19.7433 3.48922C19.5452 3.4939 19.357 3.57675 19.2198 3.71969L12.0001 10.9394L4.78039 3.71969C4.71048 3.6477 4.62684 3.59047 4.53441 3.55138C4.44198 3.5123 4.34265 3.49216 4.2423 3.49215C4.09304 3.49219 3.94719 3.53676 3.8234 3.62015C3.69961 3.70355 3.60352 3.82198 3.54741 3.9603C3.49131 4.09861 3.47775 4.25052 3.50847 4.39659C3.53918 4.54266 3.61278 4.67624 3.71984 4.78024L10.9396 12L3.71984 19.2197C3.64786 19.2888 3.5904 19.3716 3.55081 19.4632C3.51122 19.5548 3.49031 19.6533 3.4893 19.7531C3.48828 19.8529 3.50719 19.9519 3.5449 20.0443C3.58262 20.1366 3.63839 20.2206 3.70895 20.2911C3.77951 20.3617 3.86344 20.4175 3.95582 20.4552C4.0482 20.4929 4.14718 20.5118 4.24696 20.5108C4.34674 20.5098 4.44531 20.4889 4.53691 20.4493C4.6285 20.4097 4.71128 20.3522 4.78039 20.2802L12.0001 13.0605L19.2198 20.2802C19.289 20.3522 19.3717 20.4097 19.4633 20.4493C19.5549 20.4889 19.6535 20.5098 19.7533 20.5108C19.8531 20.5118 19.952 20.4929 20.0444 20.4552C20.1368 20.4175 20.2207 20.3617 20.2913 20.2911C20.3618 20.2206 20.4176 20.1366 20.4553 20.0443C20.493 19.9519 20.5119 19.8529 20.5109 19.7531C20.5099 19.6533 20.489 19.5548 20.4494 19.4632C20.4098 19.3716 20.3524 19.2888 20.2804 19.2197L13.0607 12L20.2804 4.78024C20.3895 4.67556 20.4643 4.54037 20.4952 4.39239C20.5261 4.24441 20.5116 4.09054 20.4535 3.95097C20.3955 3.8114 20.2966 3.69263 20.1698 3.61023C20.0431 3.52783 19.8944 3.48565 19.7433 3.48922Z" fill="black"/>
</svg>
