<svg width="16" height="16" viewBox="0 0 16 16" fill="none" xmlns="http://www.w3.org/2000/svg">
<path d="M8 2.33337C5.50333 2.33337 3.44336 4.23671 3.19336 6.66671H3C1.34667 6.66671 0 8.01337 0 9.66671C0 11.32 1.34667 12.6667 3 12.6667H5.54688L4.54688 11.6667H3C1.89667 11.6667 1 10.77 1 9.66671C1 8.56337 1.89667 7.66671 3 7.66671H3.66667C3.94333 7.66671 4.16667 7.44337 4.16667 7.16671C4.16667 5.05337 5.88667 3.33337 8 3.33337C10.1133 3.33337 11.8333 5.05337 11.8333 7.16671C11.8333 7.44337 12.0567 7.66671 12.3333 7.66671H13C14.1033 7.66671 15 8.56337 15 9.66671C15 10.77 14.1033 11.6667 13 11.6667H9.94662L8.84635 12.6667H13C14.6533 12.6667 16 11.32 16 9.66671C16 8.01337 14.6533 6.66671 13 6.66671H12.8066C12.5566 4.23671 10.4967 2.33337 8 2.33337ZM10.8477 8.32882C10.7176 8.32639 10.5917 8.37473 10.4967 8.46358L7.18294 11.476L5.52018 9.81319C5.47411 9.76521 5.41893 9.7269 5.35786 9.7005C5.2968 9.67411 5.23108 9.66017 5.16456 9.65949C5.09804 9.65882 5.03206 9.67142 4.97047 9.69657C4.90888 9.72171 4.85293 9.75889 4.80589 9.80593C4.75885 9.85297 4.72167 9.90892 4.69653 9.97051C4.67138 10.0321 4.65878 10.0981 4.65945 10.1646C4.66013 10.2311 4.67407 10.2968 4.70046 10.3579C4.72686 10.419 4.76517 10.4741 4.81315 10.5202L6.81315 12.5202C6.90404 12.6111 7.02644 12.6635 7.15494 12.6665C7.28345 12.6696 7.40818 12.623 7.50326 12.5365L11.1699 9.20317C11.2453 9.13641 11.2988 9.04845 11.3234 8.95079C11.3479 8.85313 11.3425 8.75033 11.3076 8.65585C11.2728 8.56136 11.2103 8.47959 11.1282 8.42124C11.0461 8.36289 10.9483 8.33067 10.8477 8.32882Z" fill="black"/>
</svg>
