<svg width="24" height="24" viewBox="0 0 24 24" fill="none" xmlns="http://www.w3.org/2000/svg">
<path d="M6.25 2C5.01 2 4 3.01 4 4.25V19.75C4 20.99 5.01 22 6.25 22H12.8154C12.3854 21.56 12.0254 21.055 11.7354 20.5H6.25C5.835 20.5 5.5 20.165 5.5 19.75V4.25C5.5 3.835 5.835 3.5 6.25 3.5H12V7.75C12 8.99 13.01 10 14.25 10H18.5V11.0752C19.02 11.1602 19.525 11.3 20 11.5V9.25C20 9.0425 19.9159 8.85535 19.7803 8.71973L13.2803 2.21973C13.1446 2.0841 12.9575 2 12.75 2H6.25ZM13.5 4.56055L17.4395 8.5H14.25C13.835 8.5 13.5 8.165 13.5 7.75V4.56055ZM17.5 12C14.4625 12 12 14.4625 12 17.5C12 20.5375 14.4625 23 17.5 23C20.5375 23 23 20.5375 23 17.5C23 14.4625 20.5375 12 17.5 12ZM8.75 12.5C8.335 12.5 8 12.835 8 13.25C8 13.665 8.335 14 8.75 14H12.0254C12.3854 13.435 12.8346 12.925 13.3496 12.5H8.75ZM17.5 13.5C17.776 13.5 18 13.724 18 14V17H21C21.276 17 21.5 17.224 21.5 17.5C21.5 17.776 21.276 18 21 18H18V21C18 21.276 17.776 21.5 17.5 21.5C17.224 21.5 17 21.276 17 21V18H14C13.724 18 13.5 17.776 13.5 17.5C13.5 17.224 13.724 17 14 17H17V14C17 13.724 17.224 13.5 17.5 13.5ZM8.75 16C8.335 16 8 16.335 8 16.75C8 17.165 8.335 17.5 8.75 17.5H11C11 16.985 11.0598 16.48 11.1748 16H8.75Z" fill="black"/>
</svg>
