<svg width="24" height="24" viewBox="0 0 24 24" fill="none" xmlns="http://www.w3.org/2000/svg">
<path d="M17.9998 2.50488C17.1025 2.50488 16.2052 2.84507 15.5252 3.52539L4.45785 14.5918C4.24786 14.8018 4.09407 15.0629 4.01254 15.3496L2.52914 20.5439C2.49256 20.6725 2.49098 20.8084 2.52456 20.9378C2.55815 21.0671 2.62568 21.1852 2.72018 21.2797C2.81468 21.3742 2.9327 21.4417 3.06205 21.4753C3.1914 21.5089 3.32737 21.5073 3.4559 21.4707L8.65121 19.9873L8.65219 19.9863C8.93695 19.9045 9.19745 19.7526 9.40805 19.542L20.4745 8.47461C21.835 7.11405 21.835 4.88595 20.4745 3.52539C19.7944 2.84507 18.8972 2.50488 17.9998 2.50488ZM17.9998 3.99609C18.5102 3.99609 19.0199 4.19276 19.4129 4.58594H19.4139C20.2013 5.37337 20.2013 6.62663 19.4139 7.41406L18.4442 8.38379L15.6161 5.55566L16.5858 4.58594C16.9788 4.19276 17.4894 3.99609 17.9998 3.99609ZM14.5555 6.61621L17.3836 9.44434L8.34652 18.4814C8.31721 18.5106 8.28008 18.5329 8.23813 18.5449L4.34164 19.6582L5.45492 15.7607V15.7598C5.46639 15.7195 5.48739 15.6834 5.5184 15.6523L14.5555 6.61621Z" fill="black"/>
</svg>
