<svg width="24" height="24" viewBox="0 0 24 24" fill="none" xmlns="http://www.w3.org/2000/svg">
<path d="M7.73032 2.99215C7.58106 2.99443 7.43588 3.0412 7.31335 3.12646C7.19082 3.21172 7.09652 3.3316 7.04251 3.47076C6.98851 3.60992 6.97725 3.76203 7.01018 3.90763C7.04312 4.05323 7.11874 4.18568 7.22739 4.28805L15.1727 12L7.22739 19.7119C7.15512 19.7801 7.09713 19.862 7.05679 19.9528C7.01646 20.0437 6.99457 20.1416 6.99241 20.241C6.99025 20.3403 7.00786 20.4391 7.04421 20.5316C7.08056 20.6241 7.13494 20.7085 7.20417 20.7798C7.2734 20.8511 7.35612 20.9079 7.4475 20.947C7.53889 20.9861 7.63713 21.0066 7.73651 21.0073C7.8359 21.0081 7.93444 20.9891 8.02642 20.9515C8.1184 20.9138 8.20198 20.8583 8.27231 20.7881L16.7723 12.5381C16.8443 12.4681 16.9015 12.3845 16.9406 12.2921C16.9797 12.1996 16.9998 12.1003 16.9998 12C16.9998 11.8996 16.9797 11.8003 16.9406 11.7079C16.9015 11.6154 16.8443 11.5318 16.7723 11.4619L8.27231 3.21188C8.20129 3.14082 8.11672 3.08476 8.02361 3.04702C7.93051 3.00927 7.83077 2.99061 7.73032 2.99215Z" fill="black"/>
</svg>
