<svg width="24" height="24" viewBox="0 0 24 24" fill="none" xmlns="http://www.w3.org/2000/svg">
<path d="M6.75 2C5.2335 2 4 3.2335 4 4.75V18.75V19.25C4 20.7599 5.24011 22 6.75 22H8V23.25C8 23.517 8.14157 23.7639 8.37207 23.8984C8.60307 24.0329 8.88812 24.0333 9.12012 23.9023L10.25 23.2607L11.3799 23.9023C11.4944 23.9673 11.622 24 11.75 24C11.8805 24 12.0109 23.9664 12.1279 23.8984C12.3584 23.7639 12.5 23.517 12.5 23.25V22H19.75C19.8494 22.0014 19.9481 21.983 20.0403 21.946C20.1325 21.9089 20.2164 21.8539 20.2872 21.7841C20.358 21.7143 20.4142 21.6312 20.4526 21.5395C20.4909 21.4478 20.5107 21.3494 20.5107 21.25C20.5107 21.1506 20.4909 21.0522 20.4526 20.9605C20.4142 20.8688 20.358 20.7857 20.2872 20.7159C20.2164 20.6461 20.1325 20.5911 20.0403 20.554C19.9481 20.517 19.8494 20.4986 19.75 20.5H12.5V19.5H19.75C20.1645 19.5 20.5 19.1645 20.5 18.75V4.75C20.5 3.234 19.266 2 17.75 2H6.75ZM6.75 3.5H15V18H5.5V4.75C5.5 4.061 6.061 3.5 6.75 3.5ZM16.5 3.5H17.75C18.4395 3.5 19 4.0605 19 4.75V18H16.5V3.5ZM5.52539 19.5H8V20.5H6.75C6.13662 20.5 5.63862 20.0762 5.52539 19.5Z" fill="black"/>
</svg>
