<svg width="35" height="36" viewBox="0 0 35 36" fill="none" xmlns="http://www.w3.org/2000/svg">
<path d="M31.3536 23.5704C31.3536 23.7892 31.2807 24.0079 31.0911 24.1975C28.9765 26.3267 25.214 30.1183 23.0557 32.2912C22.8661 32.4954 22.6182 32.5829 22.3702 32.5829C21.889 32.5829 21.4224 32.2037 21.4224 31.6496V26.5454C21.4224 24.4162 23.2307 22.6517 25.4474 22.6517C26.8327 22.6371 28.7577 22.6371 30.4057 22.6371C30.9744 22.6371 31.3536 23.0892 31.3536 23.5704Z" fill="black"/>
<path d="M31.3536 23.5704C31.3536 23.7892 31.2807 24.0079 31.0911 24.1975C28.9765 26.3267 25.214 30.1183 23.0557 32.2912C22.8661 32.4954 22.6182 32.5829 22.3702 32.5829C21.889 32.5829 21.4224 32.2037 21.4224 31.6496V26.5454C21.4224 24.4162 23.2307 22.6517 25.4474 22.6517C26.8327 22.6371 28.7577 22.6371 30.4057 22.6371C30.9744 22.6371 31.3536 23.0892 31.3536 23.5704Z" fill="black"/>
<path d="M24.2523 3.41675H15.3127C14.5106 3.41675 13.8543 4.073 13.8543 4.87508V9.97922C13.8543 12.4001 11.9002 14.3542 9.47932 14.3542H5.10432C4.30225 14.3542 3.646 15.0105 3.646 15.8126V25.4813C3.646 29.4042 6.82519 32.5834 10.7481 32.5834H17.7773C18.5793 32.5834 19.2356 31.9272 19.2356 31.1251V26.5459C19.2356 23.1917 22.021 20.4647 25.4481 20.4647C26.221 20.4501 28.1023 20.4501 29.896 20.4501C30.6981 20.4501 31.3543 19.8084 31.3543 18.9917V10.5188C31.3543 6.59591 28.1751 3.41675 24.2523 3.41675ZM12.7168 25.3063H8.86682C8.26894 25.3063 7.77307 24.8105 7.77307 24.2126C7.77307 23.6001 8.26894 23.1042 8.86682 23.1042H12.7168C13.3439 23.1042 13.8106 23.6001 13.8106 24.2126C13.8106 24.8105 13.3439 25.3063 12.7168 25.3063ZM16.7856 19.8959H8.86682C8.26894 19.8959 7.77307 19.4001 7.77307 18.8022C7.77307 18.1897 8.26894 17.6938 8.86682 17.6938H16.7856C17.3835 17.6938 17.8939 18.1897 17.8939 18.8022C17.8939 19.4001 17.3835 19.8959 16.7856 19.8959Z" fill="black"/>
<mask id="mask0_244_4750" style="mask-type:luminance" maskUnits="userSpaceOnUse" x="1" y="2" width="12" height="11">
<path d="M9.74921 2.39185H4.44035C3.03299 2.39185 1.89209 3.53274 1.89209 4.94011V10.249C1.89209 11.6563 3.03299 12.7973 4.44035 12.7973H9.74921C11.1566 12.7973 12.2975 11.6563 12.2975 10.249V4.94011C12.2975 3.53274 11.1566 2.39185 9.74921 2.39185Z" fill="white"/>
</mask>
<g mask="url(#mask0_244_4750)">
<path d="M10.0673 12.5446C9.50211 11.7655 8.65071 11.2426 7.70027 11.0909C6.74979 10.9392 5.77797 11.1711 4.99837 11.7355C4.68171 11.9673 4.40364 12.2474 4.17442 12.5658C4.15198 12.5974 4.12714 12.6273 4.1001 12.655H9.92287C9.9993 12.655 10.0736 12.655 10.1352 12.655C10.1105 12.6195 10.0878 12.5827 10.0673 12.5446Z" fill="black"/>
<path d="M12.1553 4.47973C12.1553 4.18674 12.0976 3.89662 11.9854 3.62595C11.8733 3.3553 11.7088 3.1094 11.5015 2.90232C11.2943 2.69524 11.0482 2.53105 10.7775 2.41912C10.5067 2.30719 10.2165 2.24972 9.92352 2.25H3.97759C3.38678 2.25112 2.82051 2.48647 2.40294 2.90444C1.98537 3.32242 1.75056 3.88891 1.75 4.47973V10.4257C1.75049 10.8498 1.87125 11.2651 2.09826 11.6234C3.74825 8.76504 5.36004 5.99593 6.98664 3.16525L9.37563 7.30616C7.05886 7.16814 5.6276 8.03033 4.94595 9.97122C5.72096 9.28162 6.7161 8.89019 7.75323 8.86697C9.28008 8.81816 10.4289 9.2917 11.3632 10.7145C11.5412 10.9867 11.7008 11.2705 11.8411 11.564C12.0461 11.2188 12.1547 10.825 12.1553 10.4236V4.4776V4.47973Z" fill="black"/>
</g>
</svg>
