<svg width="24" height="24" viewBox="0 0 24 24" fill="none" xmlns="http://www.w3.org/2000/svg">
<path d="M9.498 2.5117C8.91132 2.49713 8.3172 2.70519 7.86518 3.15721L3.15718 7.86424V7.86522C2.12433 8.8988 2.36295 10.6765 3.63179 11.4013L8.68159 14.2881L10.5781 19.0283C10.6242 19.1435 10.6981 19.2455 10.7933 19.3251C10.8885 19.4047 11.002 19.4594 11.1235 19.4844C11.2451 19.5094 11.371 19.5038 11.4898 19.4682C11.6087 19.4325 11.7169 19.368 11.8046 19.2803L15.0126 16.0732L20.2197 21.2803C20.2888 21.3522 20.3716 21.4097 20.4632 21.4493C20.5548 21.4889 20.6533 21.5098 20.7531 21.5108C20.8529 21.5118 20.9519 21.4929 21.0442 21.4552C21.1366 21.4175 21.2206 21.3617 21.2911 21.2911C21.3617 21.2206 21.4174 21.1367 21.4552 21.0443C21.4929 20.9519 21.5118 20.8529 21.5108 20.7531C21.5098 20.6534 21.4888 20.5548 21.4493 20.4632C21.4097 20.3716 21.3522 20.2888 21.2802 20.2197L16.0732 15.0127L19.2812 11.8047C19.3689 11.7169 19.4335 11.6087 19.4691 11.4898C19.5047 11.371 19.5103 11.2451 19.4853 11.1236C19.4604 11.002 19.4056 10.8886 19.326 10.7934C19.2464 10.6982 19.1445 10.6242 19.0292 10.5781L14.288 8.68162L11.4023 3.63182V3.63084C11.0396 2.9966 10.4134 2.6202 9.74897 2.53123C9.66592 2.52011 9.58181 2.51378 9.498 2.5117ZM9.38862 3.99217C9.44346 3.98666 9.4985 3.98784 9.55268 3.9951C9.76941 4.02413 9.97275 4.1542 10.0996 4.37596L13.1162 9.6533C13.2001 9.80025 13.3312 9.91451 13.4882 9.97752L17.416 11.5478L11.5478 17.416L9.97749 13.4883C9.91467 13.3309 9.80038 13.1994 9.65327 13.1152L4.37593 10.0996C3.93307 9.8466 3.8584 9.2872 4.2187 8.92576V8.92479L8.92573 4.21873C9.06104 4.08342 9.2241 4.0087 9.38862 3.99217Z" fill="black"/>
</svg>
