<svg width="24" height="24" viewBox="0 0 24 24" fill="none" xmlns="http://www.w3.org/2000/svg">
<path d="M12 2C9.5236 2 7.5 4.0236 7.5 6.5C7.5 8.9764 9.5236 11 12 11C14.4764 11 16.5 8.9764 16.5 6.5C16.5 4.0236 14.4764 2 12 2ZM12 3.5C13.6657 3.5 15 4.83426 15 6.5C15 8.16574 13.6657 9.5 12 9.5C10.3343 9.5 9 8.16574 9 6.5C9 4.83426 10.3343 3.5 12 3.5ZM6.25 11.5C5.29252 11.5 4.5 12.2925 4.5 13.25V15.5254C3.6595 15.6498 3 16.3781 3 17.25V18.25C3 19.1299 3.67187 19.8623 4.52344 19.9766C4.63765 20.8281 5.37008 21.5 6.25 21.5H10.2822C10.6261 22.0959 11.2617 22.5 12 22.5C12.7383 22.5 13.3739 22.0959 13.7178 21.5H17.75C18.6299 21.5 19.3623 20.8281 19.4766 19.9766C20.3281 19.8623 21 19.1299 21 18.25V17.25C21 16.3781 20.3405 15.6498 19.5 15.5254V13.25C19.5 12.2925 18.7075 11.5 17.75 11.5H14C13.1289 11.5 12.3821 11.9389 11.877 12.5781C11.2811 11.9263 10.4448 11.5 9.5 11.5H6.25ZM6.25 13H9.5C10.4659 13 11.25 13.7841 11.25 14.75V20H6.25C6.12622 20 6.03815 19.9258 6.01172 19.8154C6.59216 19.5287 7 18.9342 7 18.25V17.25C7 16.561 6.58698 15.962 6 15.6777V13.25C6 13.1025 6.10248 13 6.25 13ZM14 13H17.75C17.8975 13 18 13.1025 18 13.25V15.6777C17.413 15.962 17 16.561 17 17.25V18.25C17 18.9342 17.4078 19.5287 17.9883 19.8154C17.9619 19.9258 17.8738 20 17.75 20H12.75V14.75V14.25C12.75 13.5509 13.3009 13 14 13ZM4.75 17H5.25C5.39752 17 5.5 17.1025 5.5 17.25V18.25C5.5 18.3975 5.39752 18.5 5.25 18.5H4.75C4.60248 18.5 4.5 18.3975 4.5 18.25V17.25C4.5 17.1025 4.60248 17 4.75 17ZM18.75 17H19.25C19.3975 17 19.5 17.1025 19.5 17.25V18.25C19.5 18.3975 19.3975 18.5 19.25 18.5H18.75C18.6025 18.5 18.5 18.3975 18.5 18.25V17.25C18.5 17.1025 18.6025 17 18.75 17Z" fill="black"/>
</svg>
