<svg width="16" height="16" viewBox="0 0 16 16" fill="none" xmlns="http://www.w3.org/2000/svg">
<mask id="path-1-inside-1_2048_267" fill="white">
<path d="M4.82552 1.99283C4.80107 1.99343 4.7767 1.99582 4.7526 1.99999H3.83333C2.82674 1.99999 2 2.82673 2 3.83332V12.1667C2 13.1732 2.82674 14 3.83333 14H4.41797C4.47165 14.0088 4.5264 14.0088 4.58008 14H11.418C11.4716 14.0088 11.5264 14.0088 11.5801 14H12.1667C13.1733 14 14 13.1732 14 12.1667V5.16665C14 5.09604 13.985 5.02622 13.956 4.96181C13.9271 4.8974 13.8848 4.83985 13.832 4.79296L10.832 2.12629C10.7405 2.04497 10.6224 2.00003 10.5 1.99999H10.2487C10.195 1.99117 10.1403 1.99117 10.0866 1.99999H4.91536C4.88569 1.9949 4.85562 1.9925 4.82552 1.99283ZM3.83333 2.99999H4.33333V4.83332C4.33333 5.47164 4.86168 5.99999 5.5 5.99999H9.5C10.1383 5.99999 10.6667 5.47164 10.6667 4.83332V3.31705L13 5.39126V12.1667C13 12.6327 12.6327 13 12.1667 13H12V9.16665C12 8.52834 11.4717 7.99999 10.8333 7.99999H5.16667C4.52835 7.99999 4 8.52834 4 9.16665V13H3.83333C3.36726 13 3 12.6327 3 12.1667V3.83332C3 3.36725 3.36726 2.99999 3.83333 2.99999ZM5.33333 2.99999H9.66667V4.83332C9.66667 4.93167 9.59835 4.99999 9.5 4.99999H5.5C5.40165 4.99999 5.33333 4.93167 5.33333 4.83332V2.99999ZM5.16667 8.99999H10.8333C10.9317 8.99999 11 9.06831 11 9.16665V13H5V9.16665C5 9.06831 5.06832 8.99999 5.16667 8.99999Z"/>
</mask>
<path d="M4.82552 1.99283C4.80107 1.99343 4.7767 1.99582 4.7526 1.99999H3.83333C2.82674 1.99999 2 2.82673 2 3.83332V12.1667C2 13.1732 2.82674 14 3.83333 14H4.41797C4.47165 14.0088 4.5264 14.0088 4.58008 14H11.418C11.4716 14.0088 11.5264 14.0088 11.5801 14H12.1667C13.1733 14 14 13.1732 14 12.1667V5.16665C14 5.09604 13.985 5.02622 13.956 4.96181C13.9271 4.8974 13.8848 4.83985 13.832 4.79296L10.832 2.12629C10.7405 2.04497 10.6224 2.00003 10.5 1.99999H10.2487C10.195 1.99117 10.1403 1.99117 10.0866 1.99999H4.91536C4.88569 1.9949 4.85562 1.9925 4.82552 1.99283ZM3.83333 2.99999H4.33333V4.83332C4.33333 5.47164 4.86168 5.99999 5.5 5.99999H9.5C10.1383 5.99999 10.6667 5.47164 10.6667 4.83332V3.31705L13 5.39126V12.1667C13 12.6327 12.6327 13 12.1667 13H12V9.16665C12 8.52834 11.4717 7.99999 10.8333 7.99999H5.16667C4.52835 7.99999 4 8.52834 4 9.16665V13H3.83333C3.36726 13 3 12.6327 3 12.1667V3.83332C3 3.36725 3.36726 2.99999 3.83333 2.99999ZM5.33333 2.99999H9.66667V4.83332C9.66667 4.93167 9.59835 4.99999 9.5 4.99999H5.5C5.40165 4.99999 5.33333 4.93167 5.33333 4.83332V2.99999ZM5.16667 8.99999H10.8333C10.9317 8.99999 11 9.06831 11 9.16665V13H5V9.16665C5 9.06831 5.06832 8.99999 5.16667 8.99999Z" fill="#09090B"/>
<path d="M4.82552 1.99283L4.81129 0.662903L4.80206 0.663001L4.79284 0.663228L4.82552 1.99283ZM4.7526 1.99999V3.32999H4.86675L4.97922 3.31054L4.7526 1.99999ZM4.41797 14L4.63355 12.6876L4.52648 12.67H4.41797V14ZM4.58008 14V12.67H4.47157L4.36449 12.6876L4.58008 14ZM11.418 14L11.6336 12.6876L11.5265 12.67H11.418V14ZM11.5801 14V12.67H11.4716L11.3645 12.6876L11.5801 14ZM14 5.16665L15.33 5.16665L15.33 5.16622L14 5.16665ZM13.832 4.79296L12.9484 5.78701L12.9488 5.78733L13.832 4.79296ZM10.832 2.12629L11.7156 1.13224L11.7156 1.13222L10.832 2.12629ZM10.5 1.99999L10.5005 0.669988H10.5V1.99999ZM10.2487 1.99999L10.0331 3.3124L10.1402 3.32999H10.2487V1.99999ZM10.0866 1.99999V3.32999H10.1951L10.3022 3.3124L10.0866 1.99999ZM4.91536 1.99999L4.69063 3.31086L4.80219 3.32999H4.91536V1.99999ZM4.33333 2.99999H5.66333V1.66999H4.33333V2.99999ZM10.6667 3.31705L11.5503 2.32302L9.33667 0.355206V3.31705H10.6667ZM13 5.39126H14.33V4.79403L13.8836 4.39724L13 5.39126ZM12 13H10.67V14.33H12V13ZM4 13V14.33H5.33V13H4ZM5.33333 2.99999V1.66999H4.00333V2.99999H5.33333ZM9.66667 2.99999H10.9967V1.66999H9.66667V2.99999ZM11 13V14.33H12.33V13H11ZM5 13H3.67V14.33H5V13ZM4.79284 0.663228C4.70337 0.665427 4.61418 0.674187 4.52598 0.689437L4.97922 3.31054C4.93923 3.31745 4.89878 3.32143 4.8582 3.32242L4.79284 0.663228ZM4.7526 0.669988H3.83333V3.32999H4.7526V0.669988ZM3.83333 0.669988C2.0922 0.669988 0.67 2.09219 0.67 3.83332H3.33C3.33 3.56127 3.56128 3.32999 3.83333 3.32999V0.669988ZM0.67 3.83332V12.1667H3.33V3.83332H0.67ZM0.67 12.1667C0.67 13.9078 2.0922 15.33 3.83333 15.33V12.67C3.56128 12.67 3.33 12.4387 3.33 12.1667H0.67ZM3.83333 15.33H4.41797V12.67H3.83333V15.33ZM4.20238 15.3124C4.39883 15.3447 4.59922 15.3447 4.79566 15.3124L4.36449 12.6876C4.45358 12.6729 4.54446 12.6729 4.63355 12.6876L4.20238 15.3124ZM4.58008 15.33H11.418V12.67H4.58008V15.33ZM11.2024 15.3124C11.3988 15.3447 11.5992 15.3447 11.7957 15.3124L11.3645 12.6876C11.4536 12.6729 11.5445 12.6729 11.6336 12.6876L11.2024 15.3124ZM11.5801 15.33H12.1667V12.67H11.5801V15.33ZM12.1667 15.33C13.9078 15.33 15.33 13.9078 15.33 12.1667H12.67C12.67 12.4387 12.4387 12.67 12.1667 12.67V15.33ZM15.33 12.1667V5.16665H12.67V12.1667H15.33ZM15.33 5.16622C15.3299 4.90778 15.2751 4.65228 15.1691 4.41656L12.743 5.50707C12.6949 5.40016 12.67 5.28429 12.67 5.16709L15.33 5.16622ZM15.1691 4.41656C15.0632 4.18082 14.9085 3.97021 14.7153 3.79859L12.9488 5.78733C12.8612 5.70949 12.791 5.61398 12.743 5.50707L15.1691 4.41656ZM14.7156 3.7989L11.7156 1.13224L9.94843 3.12034L12.9484 5.78701L14.7156 3.7989ZM11.7156 1.13222C11.3808 0.834611 10.9484 0.670147 10.5005 0.669988L10.4995 3.32999C10.2964 3.32992 10.1003 3.25533 9.94845 3.12036L11.7156 1.13222ZM10.5 0.669988H10.2487V3.32999H10.5V0.669988ZM10.4643 0.687577C10.2678 0.655308 10.0674 0.655308 9.871 0.687577L10.3022 3.3124C10.2131 3.32703 10.1222 3.32703 10.0331 3.3124L10.4643 0.687577ZM10.0866 0.669988H4.91536V3.32999H10.0866V0.669988ZM5.14009 0.689112C5.0315 0.670496 4.92146 0.661724 4.81129 0.662903L4.83975 3.32275C4.78979 3.32329 4.73988 3.31931 4.69063 3.31086L5.14009 0.689112ZM3.83333 4.32999H4.33333V1.66999H3.83333V4.32999ZM3.00333 2.99999V4.83332H5.66333V2.99999H3.00333ZM3.00333 4.83332C3.00333 6.20618 4.12714 7.32999 5.5 7.32999V4.66999C5.55446 4.66999 5.59537 4.69319 5.61775 4.71557C5.64013 4.73795 5.66333 4.77886 5.66333 4.83332H3.00333ZM5.5 7.32999H9.5V4.66999H5.5V7.32999ZM9.5 7.32999C10.8729 7.32999 11.9967 6.20618 11.9967 4.83332H9.33667C9.33667 4.77886 9.35987 4.73795 9.38225 4.71557C9.40463 4.69319 9.44554 4.66999 9.5 4.66999V7.32999ZM11.9967 4.83332V3.31705H9.33667V4.83332H11.9967ZM9.78303 4.31107L12.1164 6.38529L13.8836 4.39724L11.5503 2.32302L9.78303 4.31107ZM11.67 5.39126V12.1667H14.33V5.39126H11.67ZM11.67 12.1667C11.67 11.8982 11.8982 11.67 12.1667 11.67V14.33C13.3673 14.33 14.33 13.3673 14.33 12.1667H11.67ZM12.1667 11.67H12V14.33H12.1667V11.67ZM13.33 13V9.16665H10.67V13H13.33ZM13.33 9.16665C13.33 7.7938 12.2062 6.66999 10.8333 6.66999V9.32999C10.7789 9.32999 10.738 9.30678 10.7156 9.2844C10.6932 9.26202 10.67 9.22112 10.67 9.16665H13.33ZM10.8333 6.66999H5.16667V9.32999H10.8333V6.66999ZM5.16667 6.66999C3.79381 6.66999 2.67 7.7938 2.67 9.16665H5.33C5.33 9.22112 5.3068 9.26202 5.28442 9.2844C5.26204 9.30678 5.22113 9.32999 5.16667 9.32999V6.66999ZM2.67 9.16665V13H5.33V9.16665H2.67ZM4 11.67H3.83333V14.33H4V11.67ZM3.83333 11.67C4.1018 11.67 4.33 11.8982 4.33 12.1667H1.67C1.67 13.3673 2.63272 14.33 3.83333 14.33V11.67ZM4.33 12.1667V3.83332H1.67V12.1667H4.33ZM4.33 3.83332C4.33 4.10178 4.1018 4.32999 3.83333 4.32999V1.66999C2.63272 1.66999 1.67 2.63271 1.67 3.83332H4.33ZM5.33333 4.32999H9.66667V1.66999H5.33333V4.32999ZM8.33667 2.99999V4.83332H10.9967V2.99999H8.33667ZM8.33667 4.83332C8.33667 4.56647 8.4349 4.25795 8.67976 4.01308C8.92463 3.76822 9.23315 3.66999 9.5 3.66999V6.32999C9.8652 6.32999 10.2571 6.1976 10.5607 5.89399C10.8643 5.59038 10.9967 5.19852 10.9967 4.83332H8.33667ZM9.5 3.66999H5.5V6.32999H9.5V3.66999ZM5.5 3.66999C5.76685 3.66999 6.07537 3.76822 6.32024 4.01308C6.5651 4.25795 6.66333 4.56647 6.66333 4.83332H4.00333C4.00333 5.19852 4.13572 5.59038 4.43933 5.89399C4.74294 6.1976 5.1348 6.32999 5.5 6.32999V3.66999ZM6.66333 4.83332V2.99999H4.00333V4.83332H6.66333ZM5.16667 10.33H10.8333V7.66999H5.16667V10.33ZM10.8333 10.33C10.5665 10.33 10.258 10.2318 10.0131 9.98689C9.76823 9.74203 9.67 9.4335 9.67 9.16665H12.33C12.33 8.80146 12.1976 8.4096 11.894 8.10599C11.5904 7.80238 11.1985 7.66999 10.8333 7.66999V10.33ZM9.67 9.16665V13H12.33V9.16665H9.67ZM11 11.67H5V14.33H11V11.67ZM6.33 13V9.16665H3.67V13H6.33ZM6.33 9.16665C6.33 9.4335 6.23177 9.74203 5.9869 9.98689C5.74204 10.2318 5.43352 10.33 5.16667 10.33V7.66999C4.80147 7.66999 4.40961 7.80238 4.106 8.10599C3.80239 8.4096 3.67 8.80146 3.67 9.16665H6.33Z" fill="#18181B" mask="url(#path-1-inside-1_2048_267)"/>
</svg>
