<svg width="22" height="22" viewBox="0 0 22 22" fill="none" xmlns="http://www.w3.org/2000/svg">
<path d="M10.9995 1.83337C10.2768 1.83337 9.57994 1.92478 8.91467 2.07955C8.77594 2.11193 8.6507 2.1866 8.55625 2.29324C8.46179 2.39988 8.4028 2.53322 8.38741 2.67485L8.24149 4.00509C8.19377 4.441 7.94197 4.82668 7.56205 5.04618C7.18289 5.26525 6.72267 5.28951 6.32133 5.11332H6.32043L5.09851 4.57532C4.96817 4.51796 4.82325 4.50249 4.68374 4.53103C4.54423 4.55957 4.41703 4.63072 4.3197 4.73466C3.3698 5.74735 2.64078 6.97361 2.22676 8.34224C2.18552 8.47847 2.18757 8.62413 2.23263 8.75913C2.27768 8.89414 2.36352 9.01184 2.47831 9.09599L3.56237 9.89091C3.91637 10.1512 4.12455 10.5613 4.12455 11C4.12455 11.439 3.91638 11.8495 3.56237 12.1092L2.47831 12.9032C2.36352 12.9873 2.27768 13.105 2.23263 13.2401C2.18757 13.3751 2.18552 13.5207 2.22676 13.6569C2.64073 15.0254 3.36918 16.2526 4.3197 17.2654C4.41714 17.3692 4.54439 17.4402 4.68389 17.4686C4.82339 17.497 4.96826 17.4813 5.09851 17.4239L6.32043 16.8859C6.72197 16.7093 7.18263 16.7347 7.56205 16.9539C7.94197 17.1734 8.19377 17.5591 8.24149 17.995L8.38741 19.3252C8.40291 19.4666 8.46186 19.5996 8.55612 19.7061C8.65039 19.8125 8.77534 19.8871 8.91377 19.9196C9.57934 20.075 10.2768 20.1667 10.9995 20.1667C11.7223 20.1667 12.4192 20.0753 13.0844 19.9205C13.2232 19.8882 13.3484 19.8135 13.4429 19.7068C13.5373 19.6002 13.5963 19.4669 13.6117 19.3252L13.7576 17.995C13.8053 17.5591 14.0571 17.1734 14.437 16.9539C14.8162 16.7348 15.2764 16.7097 15.6778 16.8859L16.9006 17.4239C17.0308 17.4813 17.1757 17.497 17.3152 17.4686C17.4547 17.4402 17.582 17.3692 17.6794 17.2654C18.6293 16.2527 19.3583 15.0256 19.7723 13.6569C19.8136 13.5207 19.8115 13.3751 19.7665 13.2401C19.7214 13.105 19.6356 12.9873 19.5208 12.9032L18.4367 12.1092C18.0827 11.8495 17.8745 11.439 17.8745 11C17.8745 10.5611 18.0827 10.1506 18.4367 9.89091L19.5208 9.09688C19.6356 9.01273 19.7214 8.89503 19.7665 8.76003C19.8115 8.62502 19.8136 8.47936 19.7723 8.34314C19.3583 6.97451 18.6293 5.74735 17.6794 4.73466C17.582 4.63087 17.4547 4.55989 17.3152 4.53151C17.1757 4.50313 17.0308 4.51875 16.9006 4.57621L15.6778 5.11422C15.2764 5.29041 14.8162 5.26525 14.437 5.04618C14.0571 4.82668 13.8053 4.441 13.7576 4.00509L13.6117 2.67485C13.5962 2.5335 13.5372 2.40044 13.443 2.29399C13.3487 2.18754 13.2238 2.11293 13.0853 2.08044C12.4198 1.92511 11.7223 1.83337 10.9995 1.83337ZM10.9995 3.20837C11.4461 3.20837 11.8749 3.28853 12.3047 3.36414L12.3907 4.15458C12.4859 5.02492 12.9919 5.79903 13.7495 6.23678C14.5077 6.67481 15.4308 6.72517 16.2319 6.37284L16.9588 6.05326C17.517 6.72352 17.9589 7.48058 18.2675 8.31002L17.623 8.78267C16.9173 9.30033 16.4995 10.1245 16.4995 11C16.4995 11.8756 16.9173 12.6998 17.623 13.2174L18.2675 13.6901C17.9589 14.5195 17.517 15.2766 16.9588 15.9468L16.2319 15.6272C15.4308 15.2749 14.5077 15.3253 13.7495 15.7633C12.9919 16.2011 12.4859 16.9752 12.3907 17.8455L12.3047 18.6359C11.875 18.7113 11.4459 18.7917 10.9995 18.7917C10.553 18.7917 10.1242 18.7116 9.69437 18.6359L9.60843 17.8455C9.51316 16.9752 9.00721 16.2011 8.24955 15.7633C7.49139 15.3253 6.56834 15.2749 5.76721 15.6272L5.04032 15.9468C4.48204 15.2767 4.04019 14.5196 3.73156 13.6901L4.37609 13.2174C5.08176 12.6998 5.49955 11.8756 5.49955 11C5.49955 10.1245 5.08142 9.29979 4.37609 8.78178L3.73156 8.30912C4.04037 7.47937 4.48271 6.7228 5.04121 6.05237L5.76721 6.37195C6.56834 6.72427 7.49139 6.67481 8.24955 6.23678C9.00721 5.79903 9.51316 5.02492 9.60843 4.15458L9.69437 3.36414C10.1241 3.28874 10.5532 3.20837 10.9995 3.20837ZM10.9995 7.33337C8.98265 7.33337 7.33288 8.98314 7.33288 11C7.33288 13.0169 8.98265 14.6667 10.9995 14.6667C13.0164 14.6667 14.6662 13.0169 14.6662 11C14.6662 8.98314 13.0164 7.33337 10.9995 7.33337ZM10.9995 8.70837C12.2733 8.70837 13.2912 9.72624 13.2912 11C13.2912 12.2738 12.2733 13.2917 10.9995 13.2917C9.72575 13.2917 8.70788 12.2738 8.70788 11C8.70788 9.72624 9.72575 8.70837 10.9995 8.70837Z" fill="#09090B"/>
</svg>
