<svg width="24" height="24" viewBox="0 0 24 24" fill="none" xmlns="http://www.w3.org/2000/svg">
<path d="M7.73547 2.49311C7.54069 2.49879 7.35576 2.58004 7.21984 2.71967L4.25012 5.6894L3.28039 4.71967C3.21128 4.64769 3.1285 4.59023 3.03691 4.55064C2.94531 4.51105 2.84674 4.49014 2.74696 4.48912C2.64718 4.48811 2.5482 4.50701 2.45582 4.54473C2.36344 4.58245 2.27951 4.63822 2.20895 4.70878C2.13839 4.77934 2.08262 4.86326 2.0449 4.95565C2.00719 5.04803 1.98828 5.14701 1.9893 5.24679C1.99031 5.34657 2.01122 5.44514 2.05081 5.53674C2.0904 5.62833 2.14787 5.71111 2.21984 5.78022L3.71984 7.28022C3.8605 7.42082 4.05124 7.4998 4.25012 7.4998C4.449 7.4998 4.63973 7.42082 4.78039 7.28022L8.28039 3.78022C8.38859 3.67484 8.46246 3.53925 8.49233 3.3912C8.52219 3.24315 8.50667 3.08953 8.44778 2.95044C8.3889 2.81136 8.2894 2.69329 8.16231 2.61169C8.03521 2.53009 7.88644 2.48876 7.73547 2.49311ZM10.7501 4.49994C10.6507 4.49854 10.5521 4.5169 10.4598 4.55396C10.3676 4.59102 10.2837 4.64604 10.2129 4.71582C10.1421 4.78561 10.0859 4.86876 10.0476 4.96046C10.0092 5.05215 9.98944 5.15055 9.98944 5.24994C9.98944 5.34934 10.0092 5.44774 10.0476 5.53943C10.0859 5.63113 10.1421 5.71428 10.2129 5.78406C10.2837 5.85385 10.3676 5.90887 10.4598 5.94593C10.5521 5.98299 10.6507 6.00135 10.7501 5.99994H21.2501C21.3495 6.00135 21.4482 5.98299 21.5404 5.94593C21.6326 5.90887 21.7166 5.85385 21.7873 5.78406C21.8581 5.71428 21.9143 5.63113 21.9527 5.53943C21.991 5.44774 22.0108 5.34934 22.0108 5.24994C22.0108 5.15055 21.991 5.05215 21.9527 4.96046C21.9143 4.86876 21.8581 4.78561 21.7873 4.71582C21.7166 4.64604 21.6326 4.59102 21.5404 4.55396C21.4482 4.5169 21.3495 4.49854 21.2501 4.49994H10.7501ZM7.73547 9.24311C7.54069 9.24879 7.35576 9.33004 7.21984 9.46967L4.25012 12.4394L3.28039 11.4697C3.21128 11.3977 3.1285 11.3402 3.03691 11.3006C2.94531 11.2611 2.84674 11.2401 2.74696 11.2391C2.64718 11.2381 2.5482 11.257 2.45582 11.2947C2.36344 11.3324 2.27951 11.3882 2.20895 11.4588C2.13839 11.5293 2.08262 11.6133 2.0449 11.7056C2.00719 11.798 1.98828 11.897 1.9893 11.9968C1.99031 12.0966 2.01123 12.1951 2.05081 12.2867C2.0904 12.3783 2.14787 12.4611 2.21984 12.5302L3.71984 14.0302C3.8605 14.1708 4.05124 14.2498 4.25012 14.2498C4.449 14.2498 4.63973 14.1708 4.78039 14.0302L8.28039 10.5302C8.38859 10.4248 8.46246 10.2893 8.49233 10.1412C8.52219 9.99315 8.50667 9.83953 8.44778 9.70044C8.3889 9.56136 8.2894 9.44329 8.16231 9.36169C8.03521 9.28009 7.88644 9.23876 7.73547 9.24311ZM10.7501 11.2499C10.6507 11.2485 10.5521 11.2669 10.4598 11.304C10.3676 11.341 10.2837 11.396 10.2129 11.4658C10.1421 11.5356 10.0859 11.6188 10.0476 11.7105C10.0092 11.8021 9.98944 11.9006 9.98944 11.9999C9.98944 12.0993 10.0092 12.1977 10.0476 12.2894C10.0859 12.3811 10.1421 12.4643 10.2129 12.5341C10.2837 12.6038 10.3676 12.6589 10.4598 12.6959C10.5521 12.733 10.6507 12.7514 10.7501 12.7499H21.2501C21.3495 12.7514 21.4482 12.733 21.5404 12.6959C21.6326 12.6589 21.7166 12.6038 21.7873 12.5341C21.8581 12.4643 21.9143 12.3811 21.9527 12.2894C21.991 12.1977 22.0108 12.0993 22.0108 11.9999C22.0108 11.9006 21.991 11.8021 21.9527 11.7105C21.9143 11.6188 21.8581 11.5356 21.7873 11.4658C21.7166 11.396 21.6326 11.341 21.5404 11.304C21.4482 11.2669 21.3495 11.2485 21.2501 11.2499H10.7501ZM6.74328 15.9892C6.54521 15.9939 6.35704 16.0767 6.21984 16.2197L5.00012 17.4394L3.78039 16.2197C3.71048 16.1477 3.62684 16.0904 3.53441 16.0514C3.44199 16.0123 3.34266 15.9921 3.2423 15.9921C3.09304 15.9922 2.94719 16.0367 2.8234 16.1201C2.69961 16.2035 2.60352 16.322 2.54741 16.4603C2.49131 16.5986 2.47775 16.7505 2.50847 16.8966C2.53919 17.0426 2.61278 17.1762 2.71984 17.2802L3.93957 18.4999L2.71984 19.7197C2.64787 19.7888 2.5904 19.8716 2.55081 19.9632C2.51123 20.0548 2.49031 20.1533 2.4893 20.2531C2.48828 20.3529 2.50719 20.4519 2.5449 20.5442C2.58262 20.6366 2.63839 20.7206 2.70895 20.7911C2.77951 20.8617 2.86344 20.9174 2.95582 20.9552C3.0482 20.9929 3.14718 21.0118 3.24696 21.0108C3.34674 21.0098 3.44531 20.9888 3.53691 20.9492C3.6285 20.9097 3.71128 20.8522 3.78039 20.7802L5.00012 19.5605L6.21984 20.7802C6.28895 20.8522 6.37173 20.9097 6.46333 20.9492C6.55492 20.9888 6.6535 21.0097 6.75327 21.0108C6.85305 21.0118 6.95203 20.9929 7.04442 20.9552C7.1368 20.9174 7.22072 20.8617 7.29128 20.7911C7.36184 20.7206 7.41761 20.6366 7.45533 20.5442C7.49305 20.4519 7.51195 20.3529 7.51094 20.2531C7.50992 20.1533 7.48901 20.0548 7.44942 19.9632C7.40983 19.8716 7.35237 19.7888 7.28039 19.7197L6.06066 18.4999L7.28039 17.2802C7.38945 17.1755 7.46434 17.0403 7.49524 16.8924C7.52614 16.7444 7.5116 16.5905 7.45353 16.451C7.39546 16.3114 7.29657 16.1926 7.16983 16.1102C7.04309 16.0278 6.89441 15.9856 6.74328 15.9892ZM10.7501 17.9999C10.6507 17.9985 10.5521 18.0169 10.4598 18.054C10.3676 18.091 10.2837 18.146 10.2129 18.2158C10.1421 18.2856 10.0859 18.3688 10.0476 18.4605C10.0092 18.5521 9.98944 18.6506 9.98944 18.7499C9.98944 18.8493 10.0092 18.9477 10.0476 19.0394C10.0859 19.1311 10.1421 19.2143 10.2129 19.2841C10.2837 19.3538 10.3676 19.4089 10.4598 19.4459C10.5521 19.483 10.6507 19.5014 10.7501 19.4999H21.2501C21.3495 19.5014 21.4482 19.483 21.5404 19.4459C21.6326 19.4089 21.7166 19.3538 21.7873 19.2841C21.8581 19.2143 21.9143 19.1311 21.9527 19.0394C21.991 18.9477 22.0108 18.8493 22.0108 18.7499C22.0108 18.6506 21.991 18.5521 21.9527 18.4605C21.9143 18.3688 21.8581 18.2856 21.7873 18.2158C21.7166 18.146 21.6326 18.091 21.5404 18.054C21.4482 18.0169 21.3495 17.9985 21.2501 17.9999H10.7501Z" fill="black"/>
</svg>
